# Blender 4.5.3 LTS
# www.blender.org
o Cone
v 0.000000 0.000892 -0.265074
v 0.019593 0.000892 -0.259980
v 0.038433 0.000892 -0.244896
v 0.055796 0.000892 -0.220401
v 0.071015 0.000892 -0.187435
v 0.083505 0.000892 -0.147267
v 0.092786 0.000892 -0.101439
v 0.098501 0.000892 -0.051713
v 0.100431 0.000892 0.000000
v 0.098501 0.000892 0.051713
v 0.092786 0.000892 0.101439
v 0.083505 0.000892 0.147267
v 0.071015 0.000892 0.187435
v 0.055796 0.000892 0.220401
v 0.038433 0.000892 0.244896
v 0.019593 0.000892 0.259980
v 0.000000 0.000892 0.265074
v -0.019593 0.000892 0.259980
v -0.038433 0.000892 0.244896
v -0.055796 0.000892 0.220401
v -0.071015 0.000892 0.187435
v -0.083505 0.000892 0.147267
v -0.092786 0.000892 0.101439
v -0.098501 0.000892 0.051713
v -0.100431 0.000892 0.000000
v -0.098501 0.000892 -0.051713
v -0.092786 0.000892 -0.101439
v -0.083505 0.000892 -0.147267
v -0.071015 0.000892 -0.187435
v -0.055796 0.000892 -0.220401
v -0.038433 0.000892 -0.244896
v -0.019593 0.000892 -0.259980
v 0.000000 0.586365 0.000000
vn 0.2304 0.4013 -0.8865
vn 0.5866 0.3450 -0.7327
vn 0.7824 0.2833 -0.5546
vn 0.8820 0.2373 -0.4072
vn 0.9344 0.2063 -0.2905
vn 0.9629 0.1864 -0.1950
vn 0.9782 0.1745 -0.1124
vn 0.9849 0.1690 -0.0368
vn 0.9849 0.1690 0.0368
vn 0.9782 0.1745 0.1124
vn 0.9629 0.1864 0.1950
vn 0.9344 0.2063 0.2905
vn 0.8820 0.2373 0.4072
vn 0.7824 0.2833 0.5546
vn 0.5866 0.3450 0.7327
vn 0.2304 0.4013 0.8865
vn -0.2304 0.4013 0.8865
vn -0.5866 0.3450 0.7327
vn -0.7824 0.2833 0.5546
vn -0.8820 0.2373 0.4072
vn -0.9344 0.2063 0.2905
vn -0.9629 0.1864 0.1950
vn -0.9782 0.1745 0.1124
vn -0.9849 0.1690 0.0368
vn -0.9849 0.1690 -0.0368
vn -0.9782 0.1745 -0.1124
vn -0.9629 0.1864 -0.1950
vn -0.9344 0.2063 -0.2905
vn -0.8820 0.2373 -0.4072
vn -0.7824 0.2833 -0.5546
vn -0.0000 -1.0000 -0.0000
vn -0.5866 0.3450 -0.7327
vn -0.2304 0.4013 -0.8865
vt 0.250000 0.490000
vt 0.250000 0.250000
vt 0.296822 0.485388
vt 0.341844 0.471731
vt 0.383337 0.449553
vt 0.419706 0.419706
vt 0.449553 0.383337
vt 0.471731 0.341844
vt 0.485388 0.296822
vt 0.490000 0.250000
vt 0.485388 0.203178
vt 0.471731 0.158156
vt 0.449553 0.116663
vt 0.419706 0.080294
vt 0.383337 0.050447
vt 0.341844 0.028269
vt 0.296822 0.014612
vt 0.250000 0.010000
vt 0.203178 0.014612
vt 0.158156 0.028269
vt 0.116663 0.050447
vt 0.080294 0.080294
vt 0.050447 0.116663
vt 0.028269 0.158156
vt 0.014612 0.203178
vt 0.010000 0.250000
vt 0.014612 0.296822
vt 0.028269 0.341844
vt 0.050447 0.383337
vt 0.080294 0.419706
vt 0.116663 0.449553
vt 0.158156 0.471731
vt 0.796822 0.014612
vt 0.514612 0.203178
vt 0.703178 0.485388
vt 0.203178 0.485388
vt 0.750000 0.490000
vt 0.796822 0.485388
vt 0.841844 0.471731
vt 0.883337 0.449553
vt 0.919706 0.419706
vt 0.949553 0.383337
vt 0.971731 0.341844
vt 0.985388 0.296822
vt 0.990000 0.250000
vt 0.985388 0.203178
vt 0.971731 0.158156
vt 0.949553 0.116663
vt 0.919706 0.080294
vt 0.883337 0.050447
vt 0.841844 0.028269
vt 0.750000 0.010000
vt 0.703178 0.014612
vt 0.658156 0.028269
vt 0.616663 0.050447
vt 0.580294 0.080294
vt 0.550447 0.116663
vt 0.528269 0.158156
vt 0.510000 0.250000
vt 0.514612 0.296822
vt 0.528269 0.341844
vt 0.550447 0.383337
vt 0.580294 0.419706
vt 0.616663 0.449553
vt 0.658156 0.471731
s 0
f 1/1/1 33/2/1 2/3/1
f 2/3/2 33/2/2 3/4/2
f 3/4/3 33/2/3 4/5/3
f 4/5/4 33/2/4 5/6/4
f 5/6/5 33/2/5 6/7/5
f 6/7/6 33/2/6 7/8/6
f 7/8/7 33/2/7 8/9/7
f 8/9/8 33/2/8 9/10/8
f 9/10/9 33/2/9 10/11/9
f 10/11/10 33/2/10 11/12/10
f 11/12/11 33/2/11 12/13/11
f 12/13/12 33/2/12 13/14/12
f 13/14/13 33/2/13 14/15/13
f 14/15/14 33/2/14 15/16/14
f 15/16/15 33/2/15 16/17/15
f 16/17/16 33/2/16 17/18/16
f 17/18/17 33/2/17 18/19/17
f 18/19/18 33/2/18 19/20/18
f 19/20/19 33/2/19 20/21/19
f 20/21/20 33/2/20 21/22/20
f 21/22/21 33/2/21 22/23/21
f 22/23/22 33/2/22 23/24/22
f 23/24/23 33/2/23 24/25/23
f 24/25/24 33/2/24 25/26/24
f 25/26/25 33/2/25 26/27/25
f 26/27/26 33/2/26 27/28/26
f 27/28/27 33/2/27 28/29/27
f 28/29/28 33/2/28 29/30/28
f 29/30/29 33/2/29 30/31/29
f 30/31/30 33/2/30 31/32/30
f 16/33/31 24/34/31 32/35/31
f 31/32/32 33/2/32 32/36/32
f 32/36/33 33/2/33 1/1/33
f 32/35/31 1/37/31 2/38/31
f 2/38/31 3/39/31 4/40/31
f 4/40/31 5/41/31 6/42/31
f 6/42/31 7/43/31 8/44/31
f 8/44/31 9/45/31 10/46/31
f 10/46/31 11/47/31 12/48/31
f 12/48/31 13/49/31 14/50/31
f 14/50/31 15/51/31 16/33/31
f 16/33/31 17/52/31 18/53/31
f 18/53/31 19/54/31 20/55/31
f 20/55/31 21/56/31 22/57/31
f 22/57/31 23/58/31 24/34/31
f 24/34/31 25/59/31 26/60/31
f 26/60/31 27/61/31 28/62/31
f 28/62/31 29/63/31 30/64/31
f 30/64/31 31/65/31 32/35/31
f 32/35/31 2/38/31 4/40/31
f 4/40/31 6/42/31 8/44/31
f 8/44/31 10/46/31 12/48/31
f 12/48/31 14/50/31 16/33/31
f 16/33/31 18/53/31 20/55/31
f 20/55/31 22/57/31 24/34/31
f 24/34/31 26/60/31 28/62/31
f 28/62/31 30/64/31 32/35/31
f 32/35/31 4/40/31 8/44/31
f 8/44/31 12/48/31 16/33/31
f 16/33/31 20/55/31 24/34/31
f 24/34/31 28/62/31 32/35/31
f 32/35/31 8/44/31 16/33/31
o Cylinder
v 0.000000 -0.277487 -0.147044
v 0.000000 0.016601 -0.147044
v 0.011069 -0.277487 -0.144219
v 0.011069 0.016601 -0.144219
v 0.021713 -0.277487 -0.135851
v 0.021713 0.016601 -0.135851
v 0.031523 -0.277487 -0.122263
v 0.031523 0.016601 -0.122263
v 0.040121 -0.277487 -0.103976
v 0.040121 0.016601 -0.103976
v 0.047177 -0.277487 -0.081693
v 0.047177 0.016601 -0.081693
v 0.052421 -0.277487 -0.056271
v 0.052421 0.016601 -0.056271
v 0.055650 -0.277487 -0.028687
v 0.055650 0.016601 -0.028687
v 0.056740 -0.277487 0.000000
v 0.056740 0.016601 0.000000
v 0.055650 -0.277487 0.028687
v 0.055650 0.016601 0.028687
v 0.052421 -0.277487 0.056271
v 0.052421 0.016601 0.056271
v 0.047177 -0.277487 0.081693
v 0.047177 0.016601 0.081693
v 0.040121 -0.277487 0.103976
v 0.040121 0.016601 0.103976
v 0.031523 -0.277487 0.122263
v 0.031523 0.016601 0.122263
v 0.021713 -0.277487 0.135851
v 0.021713 0.016601 0.135851
v 0.011069 -0.277487 0.144219
v 0.011069 0.016601 0.144219
v 0.000000 -0.277487 0.147044
v 0.000000 0.016601 0.147044
v -0.011069 -0.277487 0.144219
v -0.011069 0.016601 0.144219
v -0.021713 -0.277487 0.135851
v -0.021713 0.016601 0.135851
v -0.031523 -0.277487 0.122263
v -0.031523 0.016601 0.122263
v -0.040121 -0.277487 0.103976
v -0.040121 0.016601 0.103976
v -0.047177 -0.277487 0.081693
v -0.047177 0.016601 0.081693
v -0.052421 -0.277487 0.056271
v -0.052421 0.016601 0.056271
v -0.055650 -0.277487 0.028687
v -0.055650 0.016601 0.028687
v -0.056740 -0.277487 0.000000
v -0.056740 0.016601 0.000000
v -0.055650 -0.277487 -0.028687
v -0.055650 0.016601 -0.028687
v -0.052421 -0.277487 -0.056271
v -0.052421 0.016601 -0.056271
v -0.047177 -0.277487 -0.081693
v -0.047177 0.016601 -0.081693
v -0.040121 -0.277487 -0.103976
v -0.040121 0.016601 -0.103976
v -0.031523 -0.277487 -0.122263
v -0.031523 0.016601 -0.122263
v -0.021713 -0.277487 -0.135851
v -0.021713 0.016601 -0.135851
v -0.011069 -0.277487 -0.144219
v -0.011069 0.016601 -0.144219
vn 0.2473 -0.0000 -0.9689
vn 0.6180 -0.0000 -0.7862
vn 0.8108 -0.0000 -0.5853
vn 0.9050 -0.0000 -0.4255
vn 0.9533 -0.0000 -0.3019
vn 0.9794 -0.0000 -0.2020
vn 0.9932 -0.0000 -0.1163
vn 0.9993 -0.0000 -0.0380
vn 0.9993 -0.0000 0.0380
vn 0.9932 -0.0000 0.1163
vn 0.9794 -0.0000 0.2020
vn 0.9533 -0.0000 0.3019
vn 0.9050 -0.0000 0.4255
vn 0.8108 -0.0000 0.5853
vn 0.6180 -0.0000 0.7862
vn 0.2473 -0.0000 0.9689
vn -0.2473 -0.0000 0.9689
vn -0.6180 -0.0000 0.7862
vn -0.8108 -0.0000 0.5853
vn -0.9050 -0.0000 0.4255
vn -0.9533 -0.0000 0.3019
vn -0.9794 -0.0000 0.2020
vn -0.9932 -0.0000 0.1163
vn -0.9993 -0.0000 0.0380
vn -0.9993 -0.0000 -0.0380
vn -0.9932 -0.0000 -0.1163
vn -0.9794 -0.0000 -0.2020
vn -0.9533 -0.0000 -0.3019
vn -0.9050 -0.0000 -0.4255
vn -0.8108 -0.0000 -0.5853
vn -0.0000 1.0000 -0.0000
vn -0.6180 -0.0000 -0.7862
vn -0.2473 -0.0000 -0.9689
vn -0.0000 -1.0000 -0.0000
vt 1.000000 1.000000
vt 0.968750 0.500000
vt 1.000000 0.500000
vt 0.968750 1.000000
vt 0.937500 0.500000
vt 0.937500 1.000000
vt 0.906250 0.500000
vt 0.906250 1.000000
vt 0.875000 0.500000
vt 0.875000 1.000000
vt 0.843750 0.500000
vt 0.843750 1.000000
vt 0.812500 0.500000
vt 0.812500 1.000000
vt 0.781250 0.500000
vt 0.781250 1.000000
vt 0.750000 0.500000
vt 0.750000 1.000000
vt 0.718750 0.500000
vt 0.718750 1.000000
vt 0.687500 0.500000
vt 0.687500 1.000000
vt 0.656250 0.500000
vt 0.656250 1.000000
vt 0.625000 0.500000
vt 0.625000 1.000000
vt 0.593750 0.500000
vt 0.593750 1.000000
vt 0.562500 0.500000
vt 0.562500 1.000000
vt 0.531250 0.500000
vt 0.531250 1.000000
vt 0.500000 0.500000
vt 0.500000 1.000000
vt 0.468750 0.500000
vt 0.468750 1.000000
vt 0.437500 0.500000
vt 0.437500 1.000000
vt 0.406250 0.500000
vt 0.406250 1.000000
vt 0.375000 0.500000
vt 0.375000 1.000000
vt 0.343750 0.500000
vt 0.343750 1.000000
vt 0.312500 0.500000
vt 0.312500 1.000000
vt 0.281250 0.500000
vt 0.281250 1.000000
vt 0.250000 0.500000
vt 0.250000 1.000000
vt 0.218750 0.500000
vt 0.218750 1.000000
vt 0.187500 0.500000
vt 0.187500 1.000000
vt 0.156250 0.500000
vt 0.156250 1.000000
vt 0.125000 0.500000
vt 0.125000 1.000000
vt 0.093750 0.500000
vt 0.093750 1.000000
vt 0.062500 0.500000
vt 0.158156 0.028269
vt 0.471731 0.158156
vt 0.341844 0.471731
vt 0.062500 1.000000
vt 0.031250 0.500000
vt 0.031250 1.000000
vt 0.000000 0.500000
vt 0.796822 0.014612
vt 0.514612 0.203178
vt 0.703178 0.485388
vt 0.296822 0.485388
vt 0.250000 0.490000
vt 0.203178 0.485388
vt 0.158156 0.471731
vt 0.116663 0.449553
vt 0.080294 0.419706
vt 0.050447 0.383337
vt 0.028269 0.341844
vt 0.014612 0.296822
vt 0.010000 0.250000
vt 0.014612 0.203178
vt 0.028269 0.158156
vt 0.050447 0.116663
vt 0.080294 0.080294
vt 0.116663 0.050447
vt 0.203178 0.014612
vt 0.250000 0.010000
vt 0.296822 0.014612
vt 0.341844 0.028269
vt 0.383337 0.050447
vt 0.419706 0.080294
vt 0.449553 0.116663
vt 0.485388 0.203178
vt 0.490000 0.250000
vt 0.485388 0.296822
vt 0.471731 0.341844
vt 0.449553 0.383337
vt 0.419706 0.419706
vt 0.383337 0.449553
vt 0.000000 1.000000
vt 0.750000 0.490000
vt 0.796822 0.485388
vt 0.841844 0.471731
vt 0.883337 0.449553
vt 0.919706 0.419706
vt 0.949553 0.383337
vt 0.971731 0.341844
vt 0.985388 0.296822
vt 0.990000 0.250000
vt 0.985388 0.203178
vt 0.971731 0.158156
vt 0.949553 0.116663
vt 0.919706 0.080294
vt 0.883337 0.050447
vt 0.841844 0.028269
vt 0.750000 0.010000
vt 0.703178 0.014612
vt 0.658156 0.028269
vt 0.616663 0.050447
vt 0.580294 0.080294
vt 0.550447 0.116663
vt 0.528269 0.158156
vt 0.510000 0.250000
vt 0.514612 0.296822
vt 0.528269 0.341844
vt 0.550447 0.383337
vt 0.580294 0.419706
vt 0.616663 0.449553
vt 0.658156 0.471731
s 0
f 35/66/34 36/67/34 34/68/34
f 37/69/35 38/70/35 36/67/35
f 39/71/36 40/72/36 38/70/36
f 41/73/37 42/74/37 40/72/37
f 43/75/38 44/76/38 42/74/38
f 45/77/39 46/78/39 44/76/39
f 47/79/40 48/80/40 46/78/40
f 49/81/41 50/82/41 48/80/41
f 51/83/42 52/84/42 50/82/42
f 53/85/43 54/86/43 52/84/43
f 55/87/44 56/88/44 54/86/44
f 57/89/45 58/90/45 56/88/45
f 59/91/46 60/92/46 58/90/46
f 61/93/47 62/94/47 60/92/47
f 63/95/48 64/96/48 62/94/48
f 65/97/49 66/98/49 64/96/49
f 67/99/50 68/100/50 66/98/50
f 69/101/51 70/102/51 68/100/51
f 71/103/52 72/104/52 70/102/52
f 73/105/53 74/106/53 72/104/53
f 75/107/54 76/108/54 74/106/54
f 77/109/55 78/110/55 76/108/55
f 79/111/56 80/112/56 78/110/56
f 81/113/57 82/114/57 80/112/57
f 83/115/58 84/116/58 82/114/58
f 85/117/59 86/118/59 84/116/59
f 87/119/60 88/120/60 86/118/60
f 89/121/61 90/122/61 88/120/61
f 91/123/62 92/124/62 90/122/62
f 93/125/63 94/126/63 92/124/63
f 71/127/64 55/128/64 39/129/64
f 95/130/65 96/131/65 94/126/65
f 97/132/66 34/133/66 96/131/66
f 64/134/67 80/135/67 96/136/67
f 35/66/34 37/69/34 36/67/34
f 37/69/35 39/71/35 38/70/35
f 39/71/36 41/73/36 40/72/36
f 41/73/37 43/75/37 42/74/37
f 43/75/38 45/77/38 44/76/38
f 45/77/39 47/79/39 46/78/39
f 47/79/40 49/81/40 48/80/40
f 49/81/41 51/83/41 50/82/41
f 51/83/42 53/85/42 52/84/42
f 53/85/43 55/87/43 54/86/43
f 55/87/44 57/89/44 56/88/44
f 57/89/45 59/91/45 58/90/45
f 59/91/46 61/93/46 60/92/46
f 61/93/47 63/95/47 62/94/47
f 63/95/48 65/97/48 64/96/48
f 65/97/49 67/99/49 66/98/49
f 67/99/50 69/101/50 68/100/50
f 69/101/51 71/103/51 70/102/51
f 71/103/52 73/105/52 72/104/52
f 73/105/53 75/107/53 74/106/53
f 75/107/54 77/109/54 76/108/54
f 77/109/55 79/111/55 78/110/55
f 79/111/56 81/113/56 80/112/56
f 81/113/57 83/115/57 82/114/57
f 83/115/58 85/117/58 84/116/58
f 85/117/59 87/119/59 86/118/59
f 87/119/60 89/121/60 88/120/60
f 89/121/61 91/123/61 90/122/61
f 91/123/62 93/125/62 92/124/62
f 93/125/63 95/130/63 94/126/63
f 39/129/64 37/137/64 35/138/64
f 35/138/64 97/139/64 95/140/64
f 95/140/64 93/141/64 91/142/64
f 91/142/64 89/143/64 87/144/64
f 87/144/64 85/145/64 83/146/64
f 83/146/64 81/147/64 79/148/64
f 79/148/64 77/149/64 75/150/64
f 75/150/64 73/151/64 71/127/64
f 71/127/64 69/152/64 67/153/64
f 67/153/64 65/154/64 63/155/64
f 63/155/64 61/156/64 59/157/64
f 59/157/64 57/158/64 55/128/64
f 55/128/64 53/159/64 51/160/64
f 51/160/64 49/161/64 47/162/64
f 47/162/64 45/163/64 43/164/64
f 43/164/64 41/165/64 39/129/64
f 39/129/64 35/138/64 95/140/64
f 95/140/64 91/142/64 87/144/64
f 87/144/64 83/146/64 79/148/64
f 79/148/64 75/150/64 71/127/64
f 71/127/64 67/153/64 63/155/64
f 63/155/64 59/157/64 55/128/64
f 55/128/64 51/160/64 47/162/64
f 47/162/64 43/164/64 39/129/64
f 39/129/64 95/140/64 87/144/64
f 87/144/64 79/148/64 71/127/64
f 71/127/64 63/155/64 55/128/64
f 55/128/64 47/162/64 39/129/64
f 39/129/64 87/144/64 71/127/64
f 95/130/65 97/132/65 96/131/65
f 97/132/66 35/166/66 34/133/66
f 96/136/67 34/167/67 36/168/67
f 36/168/67 38/169/67 40/170/67
f 40/170/67 42/171/67 44/172/67
f 44/172/67 46/173/67 48/174/67
f 48/174/67 50/175/67 52/176/67
f 52/176/67 54/177/67 56/178/67
f 56/178/67 58/179/67 60/180/67
f 60/180/67 62/181/67 64/134/67
f 64/134/67 66/182/67 68/183/67
f 68/183/67 70/184/67 72/185/67
f 72/185/67 74/186/67 76/187/67
f 76/187/67 78/188/67 80/135/67
f 80/135/67 82/189/67 84/190/67
f 84/190/67 86/191/67 88/192/67
f 88/192/67 90/193/67 92/194/67
f 92/194/67 94/195/67 96/136/67
f 96/136/67 36/168/67 40/170/67
f 40/170/67 44/172/67 48/174/67
f 48/174/67 52/176/67 56/178/67
f 56/178/67 60/180/67 64/134/67
f 64/134/67 68/183/67 72/185/67
f 72/185/67 76/187/67 80/135/67
f 80/135/67 84/190/67 88/192/67
f 88/192/67 92/194/67 96/136/67
f 96/136/67 40/170/67 48/174/67
f 48/174/67 56/178/67 64/134/67
f 64/134/67 72/185/67 80/135/67
f 80/135/67 88/192/67 96/136/67
f 96/136/67 48/174/67 64/134/67
